<?xml version="1.0" encoding="UTF-8" standalone="no"?>
<!-- Created with Inkscape (http://www.inkscape.org/) -->

<svg
   xmlns:dc="http://purl.org/dc/elements/1.1/"
   xmlns:cc="http://creativecommons.org/ns#"
   xmlns:rdf="http://www.w3.org/1999/02/22-rdf-syntax-ns#"
   xmlns:svg="http://www.w3.org/2000/svg"
   xmlns="http://www.w3.org/2000/svg"
   xmlns:sodipodi="http://sodipodi.sourceforge.net/DTD/sodipodi-0.dtd"
   xmlns:inkscape="http://www.inkscape.org/namespaces/inkscape"
   width="14"
   height="14"
   id="svg3412"
   version="1.1"
   inkscape:version="0.48.1 r9760"
   sodipodi:docname="twitter_bullet.svg"
   inkscape:export-filename="/home/steve/p/bcb/barcampboston/attendees/media/images/twitter_bullet.png"
   inkscape:export-xdpi="77.139999"
   inkscape:export-ydpi="77.139999">
  <defs
     id="defs3414" />
  <sodipodi:namedview
     id="base"
     pagecolor="#ffffff"
     bordercolor="#666666"
     borderopacity="1.0"
     inkscape:pageopacity="0.0"
     inkscape:pageshadow="2"
     inkscape:zoom="11.2"
     inkscape:cx="12.232143"
     inkscape:cy="9.9107137"
     inkscape:document-units="px"
     inkscape:current-layer="layer1"
     showgrid="false" />
  <metadata
     id="metadata3417">
    <rdf:RDF>
      <cc:Work
         rdf:about="">
        <dc:format>image/svg+xml</dc:format>
        <dc:type
           rdf:resource="http://purl.org/dc/dcmitype/StillImage" />
        <dc:title></dc:title>
      </cc:Work>
    </rdf:RDF>
  </metadata>
  <g
     inkscape:label="Layer 1"
     inkscape:groupmode="layer"
     id="layer1"
     transform="translate(0,-1038.3622)">
    <path
       style="color:#000000;fill:#b3b3b3;fill-opacity:1;fill-rule:nonzero;stroke:none;stroke-width:1;marker:none;visibility:visible;display:inline;overflow:visible;enable-background:accumulate"
       d="m 4.7952393,1050.564 c -1.5672364,-0.1945 -2.8096424,-0.7693 -3.90624043,-1.8073 -0.30272,-0.2866 -0.538796,-0.5327 -0.524607,-0.5468 0.0142,-0.014 0.166875,0.061 0.33931,0.1659 0.55587603,0.3399 1.06938103,0.4754 1.82374403,0.4812 0.546871,0 0.764071,-0.024 1.145708,-0.1482 0.435033,-0.1418 0.9945364,-0.4611 1.3445964,-0.7674 0.193329,-0.1691 0.182818,-0.2022 -0.06423,-0.2025 -0.245125,-3e-4 -0.587385,-0.192 -0.6921414,-0.3877 -0.100667,-0.1882 0.02096,-0.4709 0.2705104,-0.6289 l 0.190909,-0.1209 -0.350394,-0.036 c -0.1927224,-0.02 -0.4652764,-0.095 -0.6056884,-0.1664 -0.250462,-0.1278 -0.660837,-0.5332 -0.660837,-0.6529 0,-0.09 0.483647,-0.3204 0.672229,-0.3204 0.256603,0 0.191388,-0.092 -0.132988,-0.1879 -0.435324,-0.1285 -0.80072,-0.4331 -1.006467,-0.8389 -0.202926,-0.4001 -0.206201,-0.3958 0.359921,-0.4792 l 0.31041,-0.046 -0.279542,-0.1773 c -0.477533,-0.3028 -0.785025,-0.7403 -0.862959,-1.2277 -0.05226,-0.3269 -0.120706,-0.3377 1.132194,0.1772 1.4824264,0.6091 2.5718394,1.1856 3.0137994,1.5948 l 0.392851,0.3637 0.10201,-0.2482 c 0.571271,-1.3898 0.891576,-1.961 1.419185,-2.5309 0.418783,-0.4523 0.604919,-0.5814 0.553183,-0.3836 -0.03096,0.1186 -0.01377,0.1162 0.259673,-0.037 0.161085,-0.09 0.381227,-0.189 0.489216,-0.22 0.182732,-0.052 0.191609,-0.047 0.128036,0.071 -0.03755,0.07 -0.109793,0.1436 -0.160503,0.163 -0.05072,0.019 -0.09219,0.06 -0.09219,0.09 0,0.03 0.119312,0.012 0.265138,-0.039 0.290268,-0.1024 0.6088787,-0.1228 0.6586817,-0.042 0.07304,0.1182 -0.107193,0.2357 -0.6124187,0.3993 l -0.536333,0.1736 0.406842,0.048 c 1.0738907,0.1275 2.1385427,1.0888 2.4580437,2.2195 0.04499,0.1591 0.109117,0.3254 0.142602,0.3696 0.08228,0.1085 0.759819,0.1024 1.184871,-0.011 0.3224,-0.086 0.302575,-0.055 0.305406,-0.012 0,0 -0.22169,0.4984 -1.155937,0.6774 l -0.257065,0.049 0.191978,0.078 c 0.105576,0.043 0.378832,0.1282 0.670869,0.1488 0.449778,0.032 0.590772,0.01 0.592261,0.044 0.0017,0.047 -0.635094,0.3873 -1.088361,0.4622 l -0.447683,0.074 -0.07843,0.2649 c -0.374572,1.2659 -1.63234,2.6523 -3.0539467,3.3664 -1.259076,0.6324 -2.956452,0.9451 -4.255196,0.7839 z"
       id="path4319"
       inkscape:connector-curvature="0"
       sodipodi:nodetypes="sscsssscsscssssssscsssscssssssssssscsssssscsssscsss" />
  </g>
</svg>
