<?xml version="1.0" encoding="UTF-8" standalone="no"?>
<!-- Created with Inkscape (http://www.inkscape.org/) -->

<svg
   xmlns:dc="http://purl.org/dc/elements/1.1/"
   xmlns:cc="http://creativecommons.org/ns#"
   xmlns:rdf="http://www.w3.org/1999/02/22-rdf-syntax-ns#"
   xmlns:svg="http://www.w3.org/2000/svg"
   xmlns="http://www.w3.org/2000/svg"
   xmlns:sodipodi="http://sodipodi.sourceforge.net/DTD/sodipodi-0.dtd"
   xmlns:inkscape="http://www.inkscape.org/namespaces/inkscape"
   id="svg3004"
   version="1.1"
   inkscape:version="0.48.2 r9819"
   width="990"
   height="765"
   xml:space="preserve"
   sodipodi:docname="1st+floor+plan+v1.svg"><metadata
     id="metadata3010"><rdf:RDF><cc:Work
         rdf:about=""><dc:format>image/svg+xml</dc:format><dc:type
           rdf:resource="http://purl.org/dc/dcmitype/StillImage" /><dc:title></dc:title></cc:Work></rdf:RDF></metadata><defs
     id="defs3008"><clipPath
       clipPathUnits="userSpaceOnUse"
       id="clipPath3020"><path
         d="M 0,0 792,0 792,612 0,612 0,0 z"
         id="path3022" /></clipPath></defs><sodipodi:namedview
     pagecolor="#ffffff"
     bordercolor="#666666"
     borderopacity="1"
     objecttolerance="10"
     gridtolerance="10"
     guidetolerance="10"
     inkscape:pageopacity="0"
     inkscape:pageshadow="2"
     inkscape:window-width="1600"
     inkscape:window-height="876"
     id="namedview3006"
     showgrid="false"
     showguides="true"
     inkscape:guide-bbox="true"
     inkscape:snap-bbox="true"
     inkscape:snap-nodes="true"
     inkscape:bbox-nodes="true"
     inkscape:zoom="0.95294118"
     inkscape:cx="457.5608"
     inkscape:cy="408.33328"
     inkscape:window-x="0"
     inkscape:window-y="24"
     inkscape:window-maximized="1"
     inkscape:current-layer="g3012"
     inkscape:snap-global="true"
     inkscape:snap-bbox-edge-midpoints="true" /><g
     id="g3012"
     inkscape:groupmode="layer"
     inkscape:label="1st+floor+plan+w+notes"
     transform="matrix(1.25,0,0,-1.25,0,765)"><g
       id="g3014" /><path
       style="fill:none;stroke:#000000;stroke-width:1px;stroke-linecap:butt;stroke-linejoin:miter;stroke-opacity:1"
       d="m 220.75903,135.6813 224.49017,0 0,-50.37037 143.64883,0 0,49.74851 89.54733,0 0,-49.74851 144.89255,0 0,49.74851 0,65.91678 -218.27161,0 L 458.30818,474.59305 130.58985,287.41427 z"
       id="path3583"
       inkscape:connector-curvature="0"
       transform="matrix(0.8,0,0,-0.8,0,612)" /><path
       style="fill:none;stroke:#000000;stroke-width:1px;stroke-linecap:butt;stroke-linejoin:miter;stroke-opacity:1"
       d="m 476.96388,367.63374 88.92547,-166.65752 -107.58117,0 0,166.65752 z"
       id="path3589"
       inkscape:connector-curvature="0"
       transform="matrix(0.8,0,0,-0.8,0,612)"
       sodipodi:nodetypes="ccccc" /><path
       style="fill:none;stroke:#000000;stroke-width:1px;stroke-linecap:butt;stroke-linejoin:miter;stroke-opacity:1"
       d="m 348.86145,200.35437 109.44673,0 0,167.27937 -110.69044,0 z"
       id="path3593"
       inkscape:connector-curvature="0"
       transform="matrix(0.8,0,0,-0.8,0,612)" /><path
       style="fill:none;stroke:#000000;stroke-width:1px;stroke-linecap:butt;stroke-linejoin:miter;stroke-opacity:1"
       d="m 194.0192,286.79241 16.16827,-47.26109 46.01738,0 0,75.24463 z"
       id="path3597"
       inkscape:connector-curvature="0"
       transform="matrix(0.8,0,0,-0.8,0,612)" /><path
       style="fill:none;stroke:#000000;stroke-width:1px;stroke-linecap:butt;stroke-linejoin:miter;stroke-opacity:1"
       d="m 407.31596,367.63374 0,39.79882 37.93324,12.43712 31.71468,-52.23594 z"
       id="path3603"
       inkscape:connector-curvature="0"
       transform="matrix(0.8,0,0,-0.8,0,612)" /><path
       style="fill:none;stroke:#000000;stroke-width:1px;stroke-linecap:butt;stroke-linejoin:miter;stroke-opacity:1"
       d="m 590.7636,84.067215 0,50.992225 -145.5144,0 0,-49.74851 z"
       id="path3607"
       inkscape:connector-curvature="0"
       transform="matrix(0.8,0,0,-0.8,0,612)" /><path
       style="fill:none;stroke:#000000;stroke-width:1px;stroke-linecap:butt;stroke-linejoin:miter;stroke-opacity:1"
       d="m 678.44536,85.31093 0,49.74851 76.48834,0 0,-49.74851 z"
       id="path3609"
       inkscape:connector-curvature="0"
       transform="matrix(0.8,0,0,-0.8,0,612)" /><path
       style="fill:none;stroke:#000000;stroke-width:1px;stroke-linecap:butt;stroke-linejoin:miter;stroke-opacity:1"
       d="m 754.31184,84.689072 0,50.370368 69.02607,0 0,-49.74851 z"
       id="path3611"
       inkscape:connector-curvature="0"
       transform="matrix(0.8,0,0,-0.8,0,612)" /><path
       style="fill:none;stroke:#000000;stroke-width:1px;stroke-linecap:butt;stroke-linejoin:miter;stroke-opacity:1"
       d="m 348.2396,201.59808 -92.03475,0 0,72.13534 91.41289,0 z"
       id="path3626"
       inkscape:connector-curvature="0"
       transform="matrix(0.8,0,0,-0.8,0,612)" /><path
       style="fill:none;stroke:#000000;stroke-width:1px;stroke-linecap:butt;stroke-linejoin:miter;stroke-opacity:1"
       d="m 347.61774,273.11157 -91.41289,0 0,41.66438 91.41289,52.85779 z"
       id="path3628"
       inkscape:connector-curvature="0"
       transform="matrix(0.8,0,0,-0.8,0,612)" /></g><g
     inkscape:groupmode="layer"
     id="layer1"
     inkscape:label="Layer" /></svg>